<svg viewBox="-0.77 0 42.843 42.843" xmlns="http://www.w3.org/2000/svg" fill="#E51E54" stroke="#E51E54"><g id="SVGRepo_bgCarrier" stroke-width="0"></g><g id="SVGRepo_tracerCarrier" stroke-linecap="round" stroke-linejoin="round"></g><g id="SVGRepo_iconCarrier"> <g id="Group_107" data-name="Group 107" transform="translate(-477.173 -82.105)"> <path id="Path_425" data-name="Path 425" d="M516.411,95.315a8.446,8.446,0,1,1-4.278-11.153A8.446,8.446,0,0,1,516.411,95.315Z" fill="#ffffff" stroke="#ff0050" stroke-miterlimit="10" stroke-width="2.592"></path> <line id="Line_69" data-name="Line 69" x2="15.43" y2="6.875" transform="translate(500.981 88.44)" fill="#ffffff" stroke="#ff0050" stroke-linecap="round" stroke-linejoin="round" stroke-width="1.555"></line> <g id="Group_106" data-name="Group 106"> <path id="Path_426" data-name="Path 426" d="M502.288,111.763a7.348,7.348,0,0,1-1.246,10.315h0a7.348,7.348,0,0,1-10.316-1.245l-10.683-13.617A7.348,7.348,0,0,1,481.289,96.9h0a7.348,7.348,0,0,1,10.316,1.245Z" fill="#ffffff" stroke="#ff0050" stroke-miterlimit="10" stroke-width="2.592"></path> <line id="Line_70" data-name="Line 70" y1="8.639" x2="11.012" transform="translate(485.934 104.953)" fill="#ffffff" stroke="#ff0050" stroke-linecap="round" stroke-linejoin="round" stroke-width="1.555"></line> </g> </g> </g></svg>