<?xml version="1.0" standalone="no"?><svg xmlns="http://www.w3.org/2000/svg" viewBox="0 0 1440 320"><path fill="#E51E51" fill-opacity="1" d="M0,96L6.2,106.7C12.3,117,25,139,37,144C49.2,149,62,139,74,112C86.2,85,98,43,111,64C123.1,85,135,171,148,192C160,213,172,171,185,138.7C196.9,107,209,85,222,80C233.8,75,246,85,258,96C270.8,107,283,117,295,133.3C307.7,149,320,171,332,181.3C344.6,192,357,192,369,208C381.5,224,394,256,406,245.3C418.5,235,431,181,443,181.3C455.4,181,468,235,480,234.7C492.3,235,505,181,517,138.7C529.2,96,542,64,554,69.3C566.2,75,578,117,591,128C603.1,139,615,117,628,106.7C640,96,652,96,665,90.7C676.9,85,689,75,702,106.7C713.8,139,726,213,738,224C750.8,235,763,181,775,144C787.7,107,800,85,812,112C824.6,139,837,213,849,245.3C861.5,277,874,267,886,224C898.5,181,911,107,923,106.7C935.4,107,948,181,960,186.7C972.3,192,985,128,997,112C1009.2,96,1022,128,1034,133.3C1046.2,139,1058,117,1071,133.3C1083.1,149,1095,203,1108,224C1120,245,1132,235,1145,197.3C1156.9,160,1169,96,1182,64C1193.8,32,1206,32,1218,64C1230.8,96,1243,160,1255,192C1267.7,224,1280,224,1292,202.7C1304.6,181,1317,139,1329,101.3C1341.5,64,1354,32,1366,26.7C1378.5,21,1391,43,1403,74.7C1415.4,107,1428,149,1434,170.7L1440,192L1440,320L1433.8,320C1427.7,320,1415,320,1403,320C1390.8,320,1378,320,1366,320C1353.8,320,1342,320,1329,320C1316.9,320,1305,320,1292,320C1280,320,1268,320,1255,320C1243.1,320,1231,320,1218,320C1206.2,320,1194,320,1182,320C1169.2,320,1157,320,1145,320C1132.3,320,1120,320,1108,320C1095.4,320,1083,320,1071,320C1058.5,320,1046,320,1034,320C1021.5,320,1009,320,997,320C984.6,320,972,320,960,320C947.7,320,935,320,923,320C910.8,320,898,320,886,320C873.8,320,862,320,849,320C836.9,320,825,320,812,320C800,320,788,320,775,320C763.1,320,751,320,738,320C726.2,320,714,320,702,320C689.2,320,677,320,665,320C652.3,320,640,320,628,320C615.4,320,603,320,591,320C578.5,320,566,320,554,320C541.5,320,529,320,517,320C504.6,320,492,320,480,320C467.7,320,455,320,443,320C430.8,320,418,320,406,320C393.8,320,382,320,369,320C356.9,320,345,320,332,320C320,320,308,320,295,320C283.1,320,271,320,258,320C246.2,320,234,320,222,320C209.2,320,197,320,185,320C172.3,320,160,320,148,320C135.4,320,123,320,111,320C98.5,320,86,320,74,320C61.5,320,49,320,37,320C24.6,320,12,320,6,320L0,320Z"></path></svg>